<svg xmlns="http://www.w3.org/2000/svg" version="1.1" xmlns:xlink="http://www.w3.org/1999/xlink" xmlns:svgjs="http://svgjs.dev/svgjs" width="2000" height="1252" viewBox="0 0 2000 1252"><g transform="matrix(1,0,0,1,-1.2121212121212466,-2.01935483870966)"><svg viewBox="0 0 396 248" data-background-color="#000000" preserveAspectRatio="xMidYMid meet" height="1252" width="2000" xmlns="http://www.w3.org/2000/svg" xmlns:xlink="http://www.w3.org/1999/xlink"><g id="tight-bounds" transform="matrix(1,0,0,1,0.2400000000000091,0.4000000000000057)"><svg viewBox="0 0 395.52 247.2" height="247.2" width="395.52"><rect width="395.52" height="247.2" fill="url(#abd261ef-80c0-4946-8a1d-0e70aeb21492)" mask="url(#fd827f57-6593-4db3-981e-4085d06c0c72)" data-fill-palette-color="tertiary"></rect><g><svg></svg></g><g><svg viewBox="0 0 395.52 247.2" height="247.2" width="395.52"><g transform="matrix(1,0,0,1,75.54432,86.05967655031645)"><svg viewBox="0 0 244.43135999999998 75.08064689936708" height="75.08064689936708" width="244.43135999999998"><g><svg viewBox="0 0 244.43135999999998 75.08064689936708" height="75.08064689936708" width="244.43135999999998"><g><svg viewBox="0 0 244.43135999999998 75.08064689936708" height="75.08064689936708" width="244.43135999999998"><g><svg viewBox="0 0 244.43135999999998 75.08064689936708" height="75.08064689936708" width="244.43135999999998"><g id="textblocktransform"><svg viewBox="0 0 244.43135999999998 75.08064689936708" height="75.08064689936708" width="244.43135999999998" id="textblock"><g><svg viewBox="0 0 244.43135999999998 75.08064689936708" height="75.08064689936708" width="244.43135999999998"><g transform="matrix(1,0,0,1,0,0)"><svg width="244.43135999999998" viewBox="0.9977272727272727 -40.2 132.49227272727273 40.7" height="75.08064689936708" data-palette-color="url(#ae25aa1d-ff22-4986-9f15-0484fc3797e6)"></svg></g></svg></g></svg></g></svg></g></svg></g></svg></g></svg></g><g><path d="M245.816 0c68.262 0 123.6 55.338 123.6 123.6 0 68.262-55.338 123.6-123.6 123.6-51.851 0-96.245-31.928-114.595-77.197h3.663c18.157 43.354 60.987 73.812 110.932 73.812 66.393 0 120.215-53.822 120.214-120.215 0-66.393-53.822-120.215-120.214-120.215-49.944 0-92.775 30.457-110.932 73.812l-3.663 0c18.349-45.269 62.743-77.197 114.595-77.197z" fill="url(#abd261ef-80c0-4946-8a1d-0e70aeb21492)" stroke="transparent" data-fill-palette-color="tertiary"></path></g></svg></g><defs></defs><mask id="43b75d91-8e9e-4092-8003-3f29f1f58cec"><g id="SvgjsG1003"><svg viewBox="0 0 395.52 247.2" height="247.2" width="395.52"><g><svg></svg></g><g><svg viewBox="0 0 395.52 247.2" height="247.2" width="395.52"><g transform="matrix(1,0,0,1,75.54432,86.05967655031645)"><svg viewBox="0 0 244.43135999999998 75.08064689936708" height="75.08064689936708" width="244.43135999999998"><g><svg viewBox="0 0 244.43135999999998 75.08064689936708" height="75.08064689936708" width="244.43135999999998"><g><svg viewBox="0 0 244.43135999999998 75.08064689936708" height="75.08064689936708" width="244.43135999999998"><g><svg viewBox="0 0 244.43135999999998 75.08064689936708" height="75.08064689936708" width="244.43135999999998"><g id="SvgjsG1002"><svg viewBox="0 0 244.43135999999998 75.08064689936708" height="75.08064689936708" width="244.43135999999998" id="SvgjsSvg1001"><g><svg viewBox="0 0 244.43135999999998 75.08064689936708" height="75.08064689936708" width="244.43135999999998"><g transform="matrix(1,0,0,1,0,0)"><svg width="244.43135999999998" viewBox="0.9977272727272727 -40.2 132.49227272727273 40.7" height="75.08064689936708" data-palette-color="url(#ae25aa1d-ff22-4986-9f15-0484fc3797e6)"><path d="M16.1-1.4Q16.1-0.85 15.53-0.18 14.95 0.5 14.03 0.5 13.1 0.5 12.58-0.18 12.05-0.85 12.03-1.4 12-1.95 12-2.5 12-3.05 12.1-6.28 12.2-9.5 12.2-18.75 12.2-28 12.75-31.2L12.75-31.2Q10.1-31.4 6.9-32.35L6.9-32.35Q1-34.15 1-36.25L1-36.25Q0.95-37.4 2-37.95L2-37.95Q2.5-38.2 2.98-38.2 3.45-38.2 3.95-37.8L3.95-37.8Q4.7-37.4 5.25-37L5.25-37Q7.2-35.65 13.5-34.7L13.5-34.7Q14.8-37.35 17.55-38.78 20.3-40.2 23.43-40.2 26.55-40.2 28.25-38.8L28.25-38.8Q30.05-37.45 30.05-35.63 30.05-33.8 28-32.25 25.95-30.7 20.75-30.7L20.75-30.7Q17.9-30.7 16.3-30.85L16.3-30.85Q15.8-29.35 15.8-20.8 15.8-12.25 15.95-7.1 16.1-1.95 16.1-1.4ZM23.05-36.7L23.05-36.7Q18.85-36.7 17.15-34.3L17.15-34.3Q18.45-34.05 20-34.05 21.55-34.05 23.93-34.5 26.3-34.95 26.3-35.65L26.3-35.65Q26.3-36.7 23.05-36.7ZM51.55-12.1L51.55-12.1Q51.55-8.45 52.07-6.03 52.6-3.6 53.4-3.3L53.4-3.3Q53.7-3.15 54.12-3.1 54.55-3.05 54.72-2.95 54.9-2.85 54.9-2.55L54.9-2.55Q54.9-1.15 54.15-0.33 53.4 0.5 51.97 0.5 50.55 0.5 49.75-1.33 48.95-3.15 48.95-6.1L48.95-6.1Q47.6-3.2 45.2-1.35 42.8 0.5 39.77 0.5 36.75 0.5 34.6-1.5L34.6-1.5Q30.6-5.2 30.6-11.95L30.6-11.95Q30.6-17.4 33.75-21.45 36.9-25.5 41.85-25.5L41.85-25.5Q45.6-25.5 48.35-22.95L48.35-22.95Q48.35-25.5 50.25-25.5L50.25-25.5Q52.55-25.5 52.55-22.08 52.55-18.65 51.55-12.1ZM48.65-11.65L48.65-11.65 48.4-19.35Q45.45-22.25 42.15-22.25 38.85-22.25 36.5-19.3 34.15-16.35 34.15-12.18 34.15-8 35.7-5.38 37.25-2.75 40-2.75 42.75-2.75 45.07-5.2 47.4-7.65 48.65-11.65ZM64.2-11.45L64.2-11.45 64.34-2.05Q64.34 0.5 62.45 0.5L62.45 0.5Q60.15 0.5 60.15-2.93 60.15-6.35 61.15-12.9L61.15-12.9Q61.15-15 60.72-18.78 60.3-22.55 60.3-23.35 60.3-24.15 60.85-24.83 61.4-25.5 62.25-25.5 63.1-25.5 63.65-24.83 64.2-24.15 64.2-23.45 64.2-22.75 64.17-21.2 64.15-19.65 64.15-19.05L64.15-19.05Q65.09-21.55 67.25-23.55L67.25-23.55Q69.45-25.5 71.62-25.5 73.8-25.5 75.07-24.63 76.34-23.75 76.34-22.65 76.34-21.55 75.8-20.95 75.25-20.35 74.37-20.35 73.5-20.35 72.45-21.25L72.45-21.25Q71.5-22.2 70.84-22.2L70.84-22.2Q69.2-22.2 67-18.63 64.8-15.05 64.2-11.45ZM84.69-21.4L84.69-21.4 84.29-10.4Q84.29-6.95 85.77-4.85 87.24-2.75 89.79-2.75 92.34-2.75 94.74-5.6L94.74-5.6Q97.09-8.5 98.09-12.1L98.09-12.1 97.94-22.95Q97.94-25.5 99.84-25.5L99.84-25.5Q102.14-25.5 102.14-22.08 102.14-18.65 101.14-12.1L101.14-12.1Q101.14-8.45 101.67-6.03 102.19-3.6 102.99-3.3L102.99-3.3Q103.29-3.15 103.72-3.1 104.14-3.05 104.32-2.95 104.49-2.85 104.49-2.55L104.49-2.55Q104.49-1.2 103.67-0.35 102.84 0.5 101.59 0.5L101.59 0.5Q98.44 0.5 98.44-5.9L98.44-5.9Q94.74 0.5 89.14 0.5L89.14 0.5Q85.14 0.5 82.94-2.45L82.94-2.45Q80.74-5.5 80.74-9.75L80.74-9.75 81.04-17.3Q81.04-18.85 80.64-21.03 80.24-23.2 80.24-23.75 80.24-24.3 80.87-24.9 81.49-25.5 82.39-25.5L82.39-25.5Q84.69-25.5 84.69-21.4ZM131.14-15.75L131.14-15.75 130.89-7.9 130.89-5.75Q130.99-3.7 131.89-3.3L131.89-3.3Q132.24-3.2 132.69-3.13 133.14-3.05 133.32-2.95 133.49-2.85 133.49-2.55L133.49-2.55Q133.49-1.25 132.67-0.38 131.84 0.5 130.74 0.5L130.74 0.5Q128.89 0.5 128.14-0.95 127.39-2.4 127.39-5.4L127.39-5.4 127.59-14.6Q127.59-18.05 126.12-20.13 124.64-22.2 122.09-22.2 119.54-22.2 117.17-19.38 114.79-16.55 113.79-12.9L113.79-12.9 113.94-2.05Q113.94 0.5 112.04 0.5L112.04 0.5Q109.74 0.5 109.74-2.93 109.74-6.35 110.74-12.9L110.74-12.9Q110.74-15 110.32-18.8 109.89-22.6 109.89-23.4 109.89-24.2 110.44-24.85 110.99-25.5 111.84-25.5 112.69-25.5 113.24-24.85 113.79-24.2 113.79-23.45 113.79-22.7 113.77-21.2 113.74-19.7 113.74-19.15L113.74-19.15Q117.39-25.5 122.74-25.5L122.74-25.5Q126.74-25.5 128.94-22.63 131.14-19.75 131.14-15.75Z" opacity="1" transform="matrix(1,0,0,1,0,0)" fill="white" class="wordmark-text-0" id="SvgjsPath1000"></path></svg></g></svg></g></svg></g></svg></g></svg></g></svg></g></svg></g><g><path d="M245.816 0c68.262 0 123.6 55.338 123.6 123.6 0 68.262-55.338 123.6-123.6 123.6-51.851 0-96.245-31.928-114.595-77.197h3.663c18.157 43.354 60.987 73.812 110.932 73.812 66.393 0 120.215-53.822 120.214-120.215 0-66.393-53.822-120.215-120.214-120.215-49.944 0-92.775 30.457-110.932 73.812l-3.663 0c18.349-45.269 62.743-77.197 114.595-77.197z" fill="black" stroke="transparent"></path></g></svg></g><defs><mask></mask></defs></svg><rect width="395.52" height="247.2" fill="black" stroke="none" visibility="hidden"></rect></g></mask><linearGradient x1="0" x2="1" y1="0.5" y2="0.5" id="ae25aa1d-ff22-4986-9f15-0484fc3797e6"><stop stop-color="#f00b51" offset="0"></stop><stop stop-color="#730062" offset="1"></stop></linearGradient><rect width="395.52" height="247.2" fill="url(#ae25aa1d-ff22-4986-9f15-0484fc3797e6)" mask="url(#43b75d91-8e9e-4092-8003-3f29f1f58cec)" data-fill-palette-color="primary"></rect><mask id="fd827f57-6593-4db3-981e-4085d06c0c72"><g id="SvgjsG1026"><svg viewBox="0 0 395.52 247.2" height="247.2" width="395.52"><g><svg></svg></g><g><svg viewBox="0 0 395.52 247.2" height="247.2" width="395.52"><g transform="matrix(1,0,0,1,75.54432,86.05967655031645)"><svg viewBox="0 0 244.43135999999998 75.08064689936708" height="75.08064689936708" width="244.43135999999998"><g><svg viewBox="0 0 244.43135999999998 75.08064689936708" height="75.08064689936708" width="244.43135999999998"><g><svg viewBox="0 0 244.43135999999998 75.08064689936708" height="75.08064689936708" width="244.43135999999998"><g><svg viewBox="0 0 244.43135999999998 75.08064689936708" height="75.08064689936708" width="244.43135999999998"><g id="SvgjsG1025"><svg viewBox="0 0 244.43135999999998 75.08064689936708" height="75.08064689936708" width="244.43135999999998" id="SvgjsSvg1024"><g><svg viewBox="0 0 244.43135999999998 75.08064689936708" height="75.08064689936708" width="244.43135999999998"><g transform="matrix(1,0,0,1,0,0)"><svg width="244.43135999999998" viewBox="0.9977272727272727 -40.2 132.49227272727273 40.7" height="75.08064689936708" data-palette-color="url(#ae25aa1d-ff22-4986-9f15-0484fc3797e6)"></svg></g></svg></g></svg></g></svg></g></svg></g></svg></g></svg></g><g><path d="M245.816 0c68.262 0 123.6 55.338 123.6 123.6 0 68.262-55.338 123.6-123.6 123.6-51.851 0-96.245-31.928-114.595-77.197h3.663c18.157 43.354 60.987 73.812 110.932 73.812 66.393 0 120.215-53.822 120.214-120.215 0-66.393-53.822-120.215-120.214-120.215-49.944 0-92.775 30.457-110.932 73.812l-3.663 0c18.349-45.269 62.743-77.197 114.595-77.197z" fill="white" stroke="transparent"></path></g></svg></g><defs><mask></mask></defs><mask><g id="SvgjsG1023"><svg viewBox="0 0 395.52 247.2" height="247.2" width="395.52"><g><svg></svg></g><g><svg viewBox="0 0 395.52 247.2" height="247.2" width="395.52"><g transform="matrix(1,0,0,1,75.54432,86.05967655031645)"><svg viewBox="0 0 244.43135999999998 75.08064689936708" height="75.08064689936708" width="244.43135999999998"><g><svg viewBox="0 0 244.43135999999998 75.08064689936708" height="75.08064689936708" width="244.43135999999998"><g><svg viewBox="0 0 244.43135999999998 75.08064689936708" height="75.08064689936708" width="244.43135999999998"><g><svg viewBox="0 0 244.43135999999998 75.08064689936708" height="75.08064689936708" width="244.43135999999998"><g id="SvgjsG1022"><svg viewBox="0 0 244.43135999999998 75.08064689936708" height="75.08064689936708" width="244.43135999999998" id="SvgjsSvg1021"><g><svg viewBox="0 0 244.43135999999998 75.08064689936708" height="75.08064689936708" width="244.43135999999998"><g transform="matrix(1,0,0,1,0,0)"><svg width="244.43135999999998" viewBox="0.9977272727272727 -40.2 132.49227272727273 40.7" height="75.08064689936708" data-palette-color="url(#ae25aa1d-ff22-4986-9f15-0484fc3797e6)"><path d="M16.1-1.4Q16.1-0.85 15.53-0.18 14.95 0.5 14.03 0.5 13.1 0.5 12.58-0.18 12.05-0.85 12.03-1.4 12-1.95 12-2.5 12-3.05 12.1-6.28 12.2-9.5 12.2-18.75 12.2-28 12.75-31.2L12.75-31.2Q10.1-31.4 6.9-32.35L6.9-32.35Q1-34.15 1-36.25L1-36.25Q0.95-37.4 2-37.95L2-37.95Q2.5-38.2 2.98-38.2 3.45-38.2 3.95-37.8L3.95-37.8Q4.7-37.4 5.25-37L5.25-37Q7.2-35.65 13.5-34.7L13.5-34.7Q14.8-37.35 17.55-38.78 20.3-40.2 23.43-40.2 26.55-40.2 28.25-38.8L28.25-38.8Q30.05-37.45 30.05-35.63 30.05-33.8 28-32.25 25.95-30.7 20.75-30.7L20.75-30.7Q17.9-30.7 16.3-30.85L16.3-30.85Q15.8-29.35 15.8-20.8 15.8-12.25 15.95-7.1 16.1-1.95 16.1-1.4ZM23.05-36.7L23.05-36.7Q18.85-36.7 17.15-34.3L17.15-34.3Q18.45-34.05 20-34.05 21.55-34.05 23.93-34.5 26.3-34.95 26.3-35.65L26.3-35.65Q26.3-36.7 23.05-36.7ZM51.55-12.1L51.55-12.1Q51.55-8.45 52.07-6.03 52.6-3.6 53.4-3.3L53.4-3.3Q53.7-3.15 54.12-3.1 54.55-3.05 54.72-2.95 54.9-2.85 54.9-2.55L54.9-2.55Q54.9-1.15 54.15-0.33 53.4 0.5 51.97 0.5 50.55 0.5 49.75-1.33 48.95-3.15 48.95-6.1L48.95-6.1Q47.6-3.2 45.2-1.35 42.8 0.5 39.77 0.5 36.75 0.5 34.6-1.5L34.6-1.5Q30.6-5.2 30.6-11.95L30.6-11.95Q30.6-17.4 33.75-21.45 36.9-25.5 41.85-25.5L41.85-25.5Q45.6-25.5 48.35-22.95L48.35-22.95Q48.35-25.5 50.25-25.5L50.25-25.5Q52.55-25.5 52.55-22.08 52.55-18.65 51.55-12.1ZM48.65-11.65L48.65-11.65 48.4-19.35Q45.45-22.25 42.15-22.25 38.85-22.25 36.5-19.3 34.15-16.35 34.15-12.18 34.15-8 35.7-5.38 37.25-2.75 40-2.75 42.75-2.75 45.07-5.2 47.4-7.65 48.65-11.65ZM64.2-11.45L64.2-11.45 64.34-2.05Q64.34 0.5 62.45 0.5L62.45 0.5Q60.15 0.5 60.15-2.93 60.15-6.35 61.15-12.9L61.15-12.9Q61.15-15 60.72-18.78 60.3-22.55 60.3-23.35 60.3-24.15 60.85-24.83 61.4-25.5 62.25-25.5 63.1-25.5 63.65-24.83 64.2-24.15 64.2-23.45 64.2-22.75 64.17-21.2 64.15-19.65 64.15-19.05L64.15-19.05Q65.09-21.55 67.25-23.55L67.25-23.55Q69.45-25.5 71.62-25.5 73.8-25.5 75.07-24.63 76.34-23.75 76.34-22.65 76.34-21.55 75.8-20.95 75.25-20.35 74.37-20.35 73.5-20.35 72.45-21.25L72.45-21.25Q71.5-22.2 70.84-22.2L70.84-22.2Q69.2-22.2 67-18.63 64.8-15.05 64.2-11.45ZM84.69-21.4L84.69-21.4 84.29-10.4Q84.29-6.95 85.77-4.85 87.24-2.75 89.79-2.75 92.34-2.75 94.74-5.6L94.74-5.6Q97.09-8.5 98.09-12.1L98.09-12.1 97.94-22.95Q97.94-25.5 99.84-25.5L99.84-25.5Q102.14-25.5 102.14-22.08 102.14-18.65 101.14-12.1L101.14-12.1Q101.14-8.45 101.67-6.03 102.19-3.6 102.99-3.3L102.99-3.3Q103.29-3.15 103.72-3.1 104.14-3.05 104.32-2.95 104.49-2.85 104.49-2.55L104.49-2.55Q104.49-1.2 103.67-0.35 102.84 0.5 101.59 0.5L101.59 0.5Q98.44 0.5 98.44-5.9L98.44-5.9Q94.74 0.5 89.14 0.5L89.14 0.5Q85.14 0.5 82.94-2.45L82.94-2.45Q80.74-5.5 80.74-9.75L80.74-9.75 81.04-17.3Q81.04-18.85 80.64-21.03 80.24-23.2 80.24-23.75 80.24-24.3 80.87-24.9 81.49-25.5 82.39-25.5L82.39-25.5Q84.69-25.5 84.69-21.4ZM131.14-15.75L131.14-15.75 130.89-7.9 130.89-5.75Q130.99-3.7 131.89-3.3L131.89-3.3Q132.24-3.2 132.69-3.13 133.14-3.05 133.32-2.95 133.49-2.85 133.49-2.55L133.49-2.55Q133.49-1.25 132.67-0.38 131.84 0.5 130.74 0.5L130.74 0.5Q128.89 0.5 128.14-0.95 127.39-2.4 127.39-5.4L127.39-5.4 127.59-14.6Q127.59-18.05 126.12-20.13 124.64-22.2 122.09-22.2 119.54-22.2 117.17-19.38 114.79-16.55 113.79-12.9L113.79-12.9 113.94-2.05Q113.94 0.5 112.04 0.5L112.04 0.5Q109.74 0.5 109.74-2.93 109.74-6.35 110.74-12.9L110.74-12.9Q110.74-15 110.32-18.8 109.89-22.6 109.89-23.4 109.89-24.2 110.44-24.85 110.99-25.5 111.84-25.5 112.69-25.5 113.24-24.85 113.79-24.2 113.79-23.45 113.79-22.7 113.77-21.2 113.74-19.7 113.74-19.15L113.74-19.15Q117.39-25.5 122.74-25.5L122.74-25.5Q126.74-25.5 128.94-22.63 131.14-19.75 131.14-15.75Z" opacity="1" transform="matrix(1,0,0,1,0,0)" fill="black" class="wordmark-text-0" id="SvgjsPath1020"></path></svg></g></svg></g></svg></g></svg></g></svg></g></svg></g></svg></g><g><path d="M245.816 0c68.262 0 123.6 55.338 123.6 123.6 0 68.262-55.338 123.6-123.6 123.6-51.851 0-96.245-31.928-114.595-77.197h3.663c18.157 43.354 60.987 73.812 110.932 73.812 66.393 0 120.215-53.822 120.214-120.215 0-66.393-53.822-120.215-120.214-120.215-49.944 0-92.775 30.457-110.932 73.812l-3.663 0c18.349-45.269 62.743-77.197 114.595-77.197z" fill="black" stroke="transparent"></path></g></svg></g><defs><mask></mask></defs></svg><rect width="395.52" height="247.2" fill="black" stroke="none" visibility="hidden"></rect></g></mask></svg><rect width="395.52" height="247.2" fill="black" stroke="none" visibility="hidden"></rect></g></mask><linearGradient x1="0" x2="1" y1="0.5" y2="0.5" id="abd261ef-80c0-4946-8a1d-0e70aeb21492"><stop stop-color="#f00b51" offset="0"></stop><stop stop-color="#730062" offset="1"></stop></linearGradient></svg><rect width="395.52" height="247.2" fill="none" stroke="none" visibility="hidden"></rect></g></svg></g></svg>